<?xml version="1.0" encoding="UTF-8" standalone="no"?>
<!DOCTYPE svg PUBLIC "-//W3C//DTD SVG 1.1//EN"
 "http://www.w3.org/Graphics/SVG/1.1/DTD/svg11.dtd">
<!-- Generated by graphviz version 3.0.0 (20220226.1711)
 -->
<!-- Pages: 1 -->
<svg width="252pt" height="132pt"
 viewBox="0.00 0.00 252.19 132.00" xmlns="http://www.w3.org/2000/svg" xmlns:xlink="http://www.w3.org/1999/xlink">
<g id="graph0" class="graph" transform="scale(1 1) rotate(0) translate(4 128)">
<polygon fill="white" stroke="transparent" points="-4,4 -4,-128 248.19,-128 248.19,4 -4,4"/>
<!-- x -->
<g id="node1" class="node">
<title>x</title>
<ellipse fill="none" stroke="black" cx="18" cy="-106" rx="18" ry="18"/>
<text text-anchor="middle" x="18" y="-102.3" font-family="Times,serif" font-size="14.00">x</text>
</g>
<!-- mul/0 -->
<g id="node3" class="node">
<title>mul/0</title>
<ellipse fill="none" stroke="black" cx="103.7" cy="-79" rx="24.9" ry="24.9"/>
<text text-anchor="middle" x="103.7" y="-75.3" font-family="Times,serif" font-size="14.00">mul</text>
</g>
<!-- x&#45;&gt;mul/0 -->
<g id="edge1" class="edge">
<title>x&#45;&gt;mul/0</title>
<path fill="none" stroke="black" d="M35.54,-100.67C45.44,-97.47 58.36,-93.3 70.23,-89.47"/>
<polygon fill="black" stroke="black" points="71.42,-92.77 79.86,-86.37 69.27,-86.11 71.42,-92.77"/>
<text text-anchor="middle" x="57.5" y="-97.8" font-family="Times,serif" font-size="14.00">x</text>
</g>
<!-- y -->
<g id="node2" class="node">
<title>y</title>
<ellipse fill="none" stroke="black" cx="18" cy="-52" rx="18" ry="18"/>
<text text-anchor="middle" x="18" y="-48.3" font-family="Times,serif" font-size="14.00">y</text>
</g>
<!-- y&#45;&gt;mul/0 -->
<g id="edge2" class="edge">
<title>y&#45;&gt;mul/0</title>
<path fill="none" stroke="black" d="M35.54,-57.33C45.44,-60.53 58.36,-64.7 70.23,-68.53"/>
<polygon fill="black" stroke="black" points="69.27,-71.89 79.86,-71.63 71.42,-65.23 69.27,-71.89"/>
<text text-anchor="middle" x="57.5" y="-68.8" font-family="Times,serif" font-size="14.00">y</text>
</g>
<!-- add/0 -->
<g id="node5" class="node">
<title>add/0</title>
<ellipse fill="none" stroke="black" cx="220.79" cy="-37" rx="23.3" ry="23.3"/>
<text text-anchor="middle" x="220.79" y="-33.3" font-family="Times,serif" font-size="14.00">add</text>
</g>
<!-- mul/0&#45;&gt;add/0 -->
<g id="edge3" class="edge">
<title>mul/0&#45;&gt;add/0</title>
<path fill="none" stroke="black" d="M127.16,-70.8C144.77,-64.38 169.45,-55.37 188.92,-48.27"/>
<polygon fill="black" stroke="black" points="190.36,-51.47 198.55,-44.75 187.96,-44.89 190.36,-51.47"/>
<text text-anchor="middle" x="162.9" y="-65.8" font-family="Times,serif" font-size="14.00">mul/0</text>
</g>
<!-- z -->
<g id="node4" class="node">
<title>z</title>
<ellipse fill="none" stroke="black" cx="103.7" cy="-18" rx="18" ry="18"/>
<text text-anchor="middle" x="103.7" y="-14.3" font-family="Times,serif" font-size="14.00">z</text>
</g>
<!-- z&#45;&gt;add/0 -->
<g id="edge4" class="edge">
<title>z&#45;&gt;add/0</title>
<path fill="none" stroke="black" d="M121.62,-20.66C136.76,-23.05 159.57,-26.69 179.4,-30 182.07,-30.45 184.84,-30.91 187.62,-31.39"/>
<polygon fill="black" stroke="black" points="187.13,-34.86 197.58,-33.1 188.31,-27.96 187.13,-34.86"/>
<text text-anchor="middle" x="162.9" y="-33.8" font-family="Times,serif" font-size="14.00">z</text>
</g>
</g>
</svg>
